<?xml version="1.0" encoding="utf-8"?>
<!-- Generator: Adobe Illustrator 17.0.0, SVG Export Plug-In . SVG Version: 6.00 Build 0)  -->
<!DOCTYPE svg PUBLIC "-//W3C//DTD SVG 1.1//EN" "http://www.w3.org/Graphics/SVG/1.1/DTD/svg11.dtd">
<svg version="1.1" id="GLYPHICONS.com" xmlns="http://www.w3.org/2000/svg" xmlns:xlink="http://www.w3.org/1999/xlink" x="0px"
	 y="0px" width="250px" height="30px" viewBox="0 -0.5 250 30" enable-background="new 0 -0.5 250 30" xml:space="preserve">
<path fill="#F9F9F9" d="M21.309,24.657c-1.85,2.466-4.47,3.391-6.782,3.391c-7.706,0-12.176-5.703-12.176-12.947
	C2.351,7.703,6.821,2,14.527,2c5.086,0,9.864,3.083,10.481,8.785h-5.24c-0.617-2.62-2.62-4.161-5.24-4.161
	c-4.932,0-6.782,4.316-6.782,8.631c0,4.161,1.85,8.323,6.782,8.323c3.545,0,5.549-1.85,5.857-5.394H14.99v-4.161H25.47v13.409
	h-3.545L21.309,24.657z M28.091,2.617h5.394v20.191h12.176v4.624h-17.57V2.617z M48.127,17.875L39.034,2.771h6.165l5.857,9.864
	l5.703-9.864h6.011l-9.248,15.259v9.556h-5.394V17.875z M63.231,2.617h11.251c6.165,0,8.631,3.853,8.631,8.015
	s-2.466,8.015-8.631,8.015h-5.857v8.939h-5.394V2.617z M68.626,14.33h4.316c2.466,0,4.778-0.617,4.778-3.699
	c0-3.237-2.312-3.699-4.778-3.699h-4.316V14.33z M84.655,2.617h5.549v9.556h10.018V2.617h5.394v24.814h-5.394V16.796H90.204v10.635
	h-5.394V2.617H84.655z M108.699,2.617h5.394v24.814h-5.394V2.617z M133.822,11.093c-0.308-2.466-2.774-4.47-5.394-4.47
	c-4.932,0-6.782,4.161-6.782,8.477c0,4.161,1.85,8.323,6.782,8.323c3.391,0,5.24-2.312,5.703-5.549h5.24
	c-0.617,6.165-4.778,10.172-10.943,10.172c-7.706,0-12.176-5.703-12.176-12.947c0-7.398,4.47-13.101,12.176-13.101
	c5.394,0,10.018,3.237,10.789,8.939h-5.394V11.093z M167.729,2.771h5.394l10.326,16.646l0,0V2.771h5.086v24.814h-5.394
	l-10.326-16.646l0,0v16.646h-5.086V2.771z M195.472,19.262c0,3.237,2.62,4.624,5.549,4.624c1.85,0,4.778-0.617,4.778-3.083
	c0-2.62-3.699-3.083-7.398-4.161c-3.699-0.925-7.398-2.466-7.398-7.09c0-5.086,4.778-7.552,9.248-7.552
	c5.24,0,10.018,2.312,10.018,8.015h-5.24c-0.154-2.928-2.312-3.699-4.932-3.699c-1.695,0-3.699,0.771-3.699,2.774
	c0,1.85,1.233,2.158,7.398,3.699c1.85,0.462,7.398,1.541,7.398,7.244c0,4.624-3.545,8.015-10.326,8.015
	c-5.549,0-10.635-2.774-10.635-8.785C190.232,19.262,195.472,19.262,195.472,19.262z M213.197,27.893V25.89h1.541v2.004H213.197z
	 M223.831,21.112c-0.308-1.387-1.233-2.312-2.774-2.312c-2.312,0-3.391,2.158-3.391,4.161s1.079,4.161,3.391,4.161
	c1.541,0,2.774-1.233,2.774-2.774h1.233c-0.308,2.312-1.85,3.853-4.007,3.853c-2.928,0-4.624-2.312-4.624-5.24
	s1.695-5.24,4.624-5.24c2.158,0,3.699,1.079,4.007,3.391C225.064,21.112,223.831,21.112,223.831,21.112z M234.62,22.961
	c0,2.774-1.695,5.24-4.624,5.24c-2.928,0-4.624-2.312-4.624-5.24s1.695-5.24,4.624-5.24C232.925,17.875,234.62,20.187,234.62,22.961
	z M226.452,22.961c0,2.158,1.079,4.161,3.391,4.161c2.312,0,3.391-2.158,3.391-4.161s-1.079-4.161-3.391-4.161
	C227.685,18.8,226.452,20.958,226.452,22.961z M235.391,18.183h1.079v1.695l0,0c0.617-1.233,1.695-2.004,3.237-2.004
	c1.233,0,2.466,0.617,2.774,1.85c0.617-1.233,1.85-1.85,3.083-1.85c2.158,0,3.237,1.079,3.237,3.391v6.627h-1.233v-6.627
	c0-1.541-0.617-2.466-2.312-2.466c-2.004,0-2.62,1.695-2.62,3.545v5.549h-1.233v-6.627c0-1.387-0.462-2.466-2.004-2.466
	c-2.004,0-2.928,1.541-2.928,3.545v5.394h-1.233v-9.556H235.391z M166,4.216c0-0.916-0.75-1.665-1.665-1.665h-21.596
	c-0.915,0-1.666,0.749-1.666,1.665v21.595c0,0.916,0.751,1.667,1.666,1.667h21.596c0.915,0,1.665-0.751,1.665-1.667V4.216z"/>
<g>
	<g>
		<path fill="#191919" d="M21.309,23.657c-1.85,2.466-4.47,3.391-6.782,3.391c-7.706,0-12.176-5.703-12.176-12.947
			C2.351,6.703,6.821,1,14.527,1c5.086,0,9.864,3.083,10.481,8.785h-5.24c-0.617-2.62-2.62-4.161-5.24-4.161
			c-4.932,0-6.782,4.316-6.782,8.631c0,4.161,1.85,8.323,6.782,8.323c3.545,0,5.549-1.85,5.857-5.394H14.99v-4.161H25.47v13.409
			h-3.545L21.309,23.657z M28.091,1.617h5.394v20.191h12.176v4.624h-17.57V1.617z M48.127,16.875L39.034,1.771h6.165l5.857,9.864
			l5.703-9.864h6.011l-9.248,15.259v9.556h-5.394V16.875z M63.231,1.617h11.251c6.165,0,8.631,3.853,8.631,8.015
			s-2.466,8.015-8.631,8.015h-5.857v8.939h-5.394V1.617z M68.626,13.33h4.316c2.466,0,4.778-0.617,4.778-3.699
			c0-3.237-2.312-3.699-4.778-3.699h-4.316V13.33z M84.655,1.617h5.549v9.556h10.018V1.617h5.394v24.814h-5.394V15.796H90.204
			v10.635h-5.394V1.617H84.655z M108.699,1.617h5.394v24.814h-5.394V1.617z M133.822,10.093c-0.308-2.466-2.774-4.47-5.394-4.47
			c-4.932,0-6.782,4.161-6.782,8.477c0,4.161,1.85,8.323,6.782,8.323c3.391,0,5.24-2.312,5.703-5.549h5.24
			c-0.617,6.165-4.778,10.172-10.943,10.172c-7.706,0-12.176-5.703-12.176-12.947c0-7.398,4.47-13.101,12.176-13.101
			c5.394,0,10.018,3.237,10.789,8.939h-5.394V10.093z M167.729,1.771h5.394l10.326,16.646l0,0V1.771h5.086v24.814h-5.394
			L172.816,9.939l0,0v16.646h-5.086V1.771z M195.472,18.262c0,3.237,2.62,4.624,5.549,4.624c1.85,0,4.778-0.617,4.778-3.083
			c0-2.62-3.699-3.083-7.398-4.161c-3.699-0.925-7.398-2.466-7.398-7.09c0-5.086,4.778-7.552,9.248-7.552
			c5.24,0,10.018,2.312,10.018,8.015h-5.24c-0.154-2.928-2.312-3.699-4.932-3.699c-1.695,0-3.699,0.771-3.699,2.774
			c0,1.85,1.233,2.158,7.398,3.699c1.85,0.462,7.398,1.541,7.398,7.244c0,4.624-3.545,8.015-10.326,8.015
			c-5.549,0-10.635-2.774-10.635-8.785C190.232,18.262,195.472,18.262,195.472,18.262z M213.197,26.893V24.89h1.541v2.004H213.197z
			 M223.831,20.112c-0.308-1.387-1.233-2.312-2.774-2.312c-2.312,0-3.391,2.158-3.391,4.161s1.079,4.161,3.391,4.161
			c1.541,0,2.774-1.233,2.774-2.774h1.233c-0.308,2.312-1.85,3.853-4.007,3.853c-2.928,0-4.624-2.312-4.624-5.24
			s1.695-5.24,4.624-5.24c2.158,0,3.699,1.079,4.007,3.391C225.064,20.112,223.831,20.112,223.831,20.112z M234.62,21.961
			c0,2.774-1.695,5.24-4.624,5.24c-2.928,0-4.624-2.312-4.624-5.24s1.695-5.24,4.624-5.24
			C232.925,16.875,234.62,19.187,234.62,21.961z M226.452,21.961c0,2.158,1.079,4.161,3.391,4.161c2.312,0,3.391-2.158,3.391-4.161
			s-1.079-4.161-3.391-4.161C227.685,17.8,226.452,19.958,226.452,21.961z M235.391,17.183h1.079v1.695l0,0
			c0.617-1.233,1.695-2.004,3.237-2.004c1.233,0,2.466,0.617,2.774,1.85c0.617-1.233,1.85-1.85,3.083-1.85
			c2.158,0,3.237,1.079,3.237,3.391v6.627h-1.233v-6.627c0-1.541-0.617-2.466-2.312-2.466c-2.004,0-2.62,1.695-2.62,3.545v5.549
			h-1.233v-6.627c0-1.387-0.462-2.466-2.004-2.466c-2.004,0-2.928,1.541-2.928,3.545v5.394h-1.233v-9.556H235.391z"/>
	</g>
</g>
<g>
	<path fill="#BC2328" d="M166,24.811c0,0.916-0.75,1.667-1.665,1.667h-21.596c-0.915,0-1.666-0.751-1.666-1.667V3.216
		c0-0.916,0.751-1.665,1.666-1.665h21.596c0.915,0,1.665,0.749,1.665,1.665V24.811z"/>
	<g>
		<g>
			<path fill="#A00000" d="M161.189,10.535h-5.156V5.362c0-0.462-0.34-0.833-0.799-0.833h-3.332c-0.46,0-0.834,0.37-0.834,0.833
				v5.173h-5.151c-0.461,0-0.834,0.324-0.834,0.784v3.334c0,0.456,0.372,0.831,0.834,0.831h5.151v5.138
				c0,0.46,0.374,0.833,0.834,0.833h3.332c0.459,0,0.799-0.373,0.799-0.833v-5.138h5.156c0.461,0,0.834-0.374,0.834-0.831v-3.334
				C162.023,10.858,161.65,10.535,161.189,10.535z"/>
		</g>
		<g>
			<path fill="#FFFFFF" d="M161.189,11.535h-5.156V6.362c0-0.462-0.34-0.833-0.799-0.833h-3.332c-0.46,0-0.834,0.37-0.834,0.833
				v5.173h-5.151c-0.461,0-0.834,0.324-0.834,0.784v3.334c0,0.456,0.372,0.831,0.834,0.831h5.151v5.138
				c0,0.46,0.374,0.833,0.834,0.833h3.332c0.459,0,0.799-0.373,0.799-0.833v-5.138h5.156c0.461,0,0.834-0.374,0.834-0.831v-3.334
				C162.023,11.858,161.65,11.535,161.189,11.535z"/>
		</g>
	</g>
</g>
</svg>
